<?xml version="1.0" encoding="UTF-8" standalone="no"?>
<!DOCTYPE svg PUBLIC "-//W3C//DTD SVG 1.1//EN" "http://www.w3.org/Graphics/SVG/1.1/DTD/svg11.dtd">
<svg width="100%" height="100%" viewBox="0 0 837 750" version="1.1" xmlns="http://www.w3.org/2000/svg" xmlns:xlink="http://www.w3.org/1999/xlink" xml:space="preserve" xmlns:serif="http://www.serif.com/" style="fill-rule:evenodd;clip-rule:evenodd;stroke-linecap:round;stroke-linejoin:round;stroke-miterlimit:1.5;">
    <g transform="matrix(1,0,0,1,-55.0612,-66.1564)">
        <rect id="Artboard1" x="55.061" y="66.156" width="836.968" height="749.367" style="fill:none;"/>
        <clipPath id="_clip1">
            <rect id="Artboard11" serif:id="Artboard1" x="55.061" y="66.156" width="836.968" height="749.367"/>
        </clipPath>
        <g clip-path="url(#_clip1)">
            <g transform="matrix(1,0,0,1,55.0612,66.1564)">
                <path d="M91.336,515.943C91.377,513.792 91.742,511.659 92.417,509.616C90.191,506.878 88.626,503.577 87.96,499.948L68.564,394.306C66.457,382.83 73.894,371.771 85.317,369.393L175.991,350.518C179.056,349.881 182.153,349.93 185.09,350.592C185.136,350.558 185.183,350.525 185.229,350.492C185.508,347.494 186.42,344.534 187.974,341.818L226.043,275.312C229.517,269.241 235.56,265.455 242.097,264.657L248.981,239.716C251.515,230.536 259.789,224.12 269.31,223.951C269.677,223.945 270.042,223.948 270.403,223.96C271.014,223.545 271.652,223.158 272.315,222.802C281.404,217.921 292.679,220.189 299.173,228.205L355.893,298.213L409.843,25.04C411.553,16.385 418.379,9.654 427.058,8.068C435.736,6.482 444.502,10.362 449.162,17.853L590.76,245.452L616.891,201.835C621.188,194.663 629.255,190.635 637.57,191.51C645.885,192.385 652.936,198.004 655.646,205.914L669.955,247.688L697.336,241.988C706.942,239.988 716.683,244.75 721.004,253.56C725.325,262.37 723.127,272.988 715.665,279.359L688.752,302.339C688.732,302.355 688.713,302.372 688.694,302.388L746.876,472.223C749.204,479.019 747.933,486.251 743.986,491.74L760.97,519.04C762.21,521.034 763.102,523.195 763.632,525.433C765.384,526.879 766.933,528.627 768.195,530.656L848.574,659.853C852,665.361 852.755,672.122 850.627,678.25C848.499,684.377 843.716,689.216 837.613,691.414C807.462,702.277 711.793,736.763 697.44,742.217C694.445,743.355 691.233,743.808 688.04,743.545C668.603,741.939 550.158,732.28 446.028,726.404C441.067,726.124 436.515,724.158 432.985,721.028C430.37,721.816 427.634,722.096 424.927,721.861C421.509,723.934 417.532,725.042 413.425,724.974L297.773,723.045C296.205,723.019 294.66,722.822 293.164,722.465C290.413,723.713 287.366,724.394 284.184,724.376L207.375,723.958C203.738,723.938 200.261,723.003 197.206,721.336C195.461,722.264 193.595,722.946 191.663,723.364C190.404,726.609 188.351,729.569 185.583,731.931L166.36,748.342C160.518,753.329 152.458,754.818 145.22,752.247C137.982,749.676 132.667,743.436 131.28,735.881L129.013,723.533L6.783,722.868C-0.858,722.826 -7.901,718.73 -11.715,712.11C-15.53,705.49 -15.541,697.342 -11.746,690.711L83.922,523.585C85.755,520.382 88.327,517.787 91.336,515.943ZM270.246,276.741C270.246,276.741 254.593,333.447 254.593,333.447L286.025,326.904L270.246,276.741ZM357.02,449.142L380.953,525.221L451.772,464.761L373.11,367.673L357.02,449.142ZM348.785,526.413L344.469,512.693C344.469,512.693 342.113,524.624 342.113,524.624L348.785,526.413ZM471.316,488.885L408.585,542.445L544.161,578.792L471.316,488.885ZM618.869,289.323L632.186,310.726L653.295,292.703C653.295,292.703 649.922,282.858 649.922,282.858L618.869,289.323ZM316.567,320.545L332.277,317.275L304.914,283.502L316.567,320.545ZM295.387,356.663L245.308,367.087L211.492,489.607C211.492,489.607 312.064,516.568 312.064,516.568L325.031,450.904L295.387,356.663ZM608.308,331.112L591.249,303.691L539.757,389.638L608.308,331.112ZM337.582,387.354C337.582,387.354 345.713,346.186 345.713,346.186L325.928,350.305L337.582,387.354ZM472.432,440.95L555.349,302.547C555.349,302.547 388.447,337.291 388.447,337.291L472.432,440.95ZM494.934,468.724L599.295,597.531L730.214,527.057L624.892,357.765L494.934,468.724ZM175.628,502.884L211.145,374.2L203.495,375.792L122.121,517.946L154.323,693.319C154.323,693.319 183.876,693.481 183.876,693.481L296.035,597.722L306.036,547.09L181.878,513.805C179.596,513.194 177.652,511.696 176.479,509.646C175.305,507.595 174.999,505.161 175.628,502.884ZM365.421,579.297L324.398,614.322L308.883,692.877C308.883,692.877 401.637,694.424 401.637,694.424L365.421,579.297ZM336.084,555.147L334.093,565.229L343.556,557.15L336.084,555.147ZM395.364,571.039L432.023,687.57L564.346,616.344L395.364,571.039ZM692.902,408.317C692.902,408.317 664.112,324.28 664.112,324.28L648.769,337.381L692.902,408.317ZM639.783,253.26L633.118,233.803L618.851,257.618L639.783,253.26ZM569.036,267.988L435.264,52.966L385.242,306.249L569.036,267.988ZM99.978,397.341L113.435,470.635L162.888,384.246L99.978,397.341ZM22.142,692.601L122.729,693.148L98.224,559.691L22.142,692.601ZM286.34,646.813L231.377,693.739L277.023,693.987L286.34,646.813ZM688.552,713.134C706.052,706.6 781.023,679.549 817.014,666.577L746.824,553.757C703.132,577.277 478.961,697.946 478.962,697.946C571.544,703.638 666.52,711.323 688.552,713.134Z" style="fill:rgb(253,193,6);stroke:black;stroke-width:1px;"/>
            </g>
        </g>
    </g>
</svg>
