<?xml version="1.0" encoding="UTF-8"?>
<svg id="Layer_1" data-name="Layer 1" xmlns="http://www.w3.org/2000/svg" xmlns:xlink="http://www.w3.org/1999/xlink" xmlns:serif="http://www.serif.com/" version="1.1" viewBox="0 0 1920 1080">
  <defs>
    <style>
      .cls-1 {
        clip-path: url(#clippath);
      }

      .cls-2 {
        fill: none;
        stroke-width: 0px;
      }

      .cls-3 {
        fill: #ecefc8;
        fill-rule: evenodd;
        stroke: #000;
        stroke-linecap: round;
        stroke-linejoin: round;
        stroke-width: 1.4px;
      }
    </style>
    <clipPath id="clippath">
      <rect class="cls-2" x="357.4" y="0" width="1205.2" height="1079.1"/>
    </clipPath>
  </defs>
  <rect id="Artboard1" class="cls-2" x="357.4" y="0" width="1205.2" height="1079.1"/>
  <g class="cls-1">
    <path class="cls-3" d="M488.9,743c0-3.1.6-6.2,1.6-9.1-3.2-3.9-5.5-8.7-6.4-13.9l-27.9-152.1c-3-16.5,7.7-32.5,24.1-35.9l130.6-27.2c4.4-.9,8.9-.8,13.1.1,0,0,.1,0,.2-.1.4-4.3,1.7-8.6,4-12.5l54.8-95.8c5-8.7,13.7-14.2,23.1-15.3l9.9-35.9c3.6-13.2,15.6-22.5,29.3-22.7.5,0,1.1,0,1.6,0,.9-.6,1.8-1.2,2.8-1.7,13.1-7,29.3-3.8,38.7,7.8l81.7,100.8,77.7-393.4c2.5-12.5,12.3-22.2,24.8-24.4,12.5-2.3,25.1,3.3,31.8,14.1l203.9,327.7,37.6-62.8c6.2-10.3,17.8-16.1,29.8-14.9s22.1,9.4,26,20.7l20.6,60.2,39.4-8.2c13.8-2.9,27.9,4,34.1,16.7,6.2,12.7,3.1,28-7.7,37.2l-38.8,33.1s0,0,0,0l83.8,244.6c3.4,9.8,1.5,20.2-4.2,28.1l24.5,39.3c1.8,2.9,3.1,6,3.8,9.2,2.5,2.1,4.8,4.6,6.6,7.5l115.7,186c4.9,7.9,6,17.7,3,26.5-3.1,8.8-10,15.8-18.7,19-43.4,15.6-181.2,65.3-201.8,73.2-4.3,1.6-8.9,2.3-13.5,1.9-28-2.3-198.6-16.2-348.5-24.7-7.1-.4-13.7-3.2-18.8-7.7-3.8,1.1-7.7,1.5-11.6,1.2-4.9,3-10.6,4.6-16.6,4.5l-166.5-2.8c-2.3,0-4.5-.3-6.6-.8-4,1.8-8.3,2.8-12.9,2.8l-110.6-.6c-5.2,0-10.2-1.4-14.6-3.8-2.5,1.3-5.2,2.3-8,2.9-1.8,4.7-4.8,8.9-8.8,12.3l-27.7,23.6c-8.4,7.2-20,9.3-30.4,5.6-10.4-3.7-18.1-12.7-20.1-23.6l-3.3-17.8-176-1c-11,0-21.1-6-26.6-15.5-5.5-9.5-5.5-21.3,0-30.8l137.8-240.7c2.6-4.6,6.3-8.3,10.7-11ZM746.5,398.5l-22.5,81.7,45.3-9.4-22.7-72.2ZM871.5,646.8l34.5,109.6,102-87.1-113.3-139.8-23.2,117.3ZM859.6,758l-6.2-19.8-3.4,17.2,9.6,2.6ZM1036.1,704l-90.3,77.1,195.2,52.3-104.9-129.5ZM1248.5,416.6l19.2,30.8,30.4-26-4.9-14.2-44.7,9.3ZM813.2,461.6l22.6-4.7-39.4-48.6,16.8,53.3ZM782.7,513.6l-72.1,15-48.7,176.4,144.8,38.8,18.7-94.6-42.7-135.7ZM1233.3,476.8l-24.6-39.5-74.1,123.8,98.7-84.3ZM843.5,557.8l11.7-59.3-28.5,5.9,16.8,53.4ZM1037.7,635l119.4-199.3-240.3,50,120.9,149.3ZM1070.1,675l150.3,185.5,188.5-101.5-151.7-243.8-187.1,159.8ZM610.3,724.2l51.1-185.3-11,2.3-117.2,204.7,46.4,252.5,42.6.2,161.5-137.9,14.4-72.9-178.8-47.9c-3.3-.9-6.1-3-7.8-6-1.7-3-2.1-6.5-1.2-9.7ZM883.6,834.2l-59.1,50.4-22.3,113.1,133.6,2.2-52.2-165.8ZM841.3,799.4l-2.9,14.5,13.6-11.6-10.8-2.9ZM926.7,822.3l52.8,167.8,190.5-102.6-243.3-65.2ZM1355.1,588l-41.5-121-22.1,18.9,63.6,102.1ZM1278.6,364.7l-9.6-28-20.5,34.3,30.1-6.3ZM1176.8,385.9l-192.6-309.6-72,364.7,264.7-55.1ZM501.3,572.2l19.4,105.5,71.2-124.4-90.6,18.9ZM389.2,997.3l144.8.8-35.3-192.2-109.6,191.4ZM769.7,931.4l-79.1,67.6,65.7.4,13.4-67.9ZM1348.9,1026.9c25.2-9.4,133.2-48.4,185-67l-101.1-162.5c-62.9,33.9-385.7,207.6-385.7,207.6,133.3,8.2,270.1,19.3,301.8,21.9Z"/>
  </g>
</svg>