<?xml version="1.0" encoding="UTF-8" standalone="no"?>
<!DOCTYPE svg PUBLIC "-//W3C//DTD SVG 1.1//EN" "http://www.w3.org/Graphics/SVG/1.1/DTD/svg11.dtd">
<svg width="100%" height="100%" viewBox="0 0 837 750" version="1.1" xmlns="http://www.w3.org/2000/svg" xmlns:xlink="http://www.w3.org/1999/xlink" xml:space="preserve" xmlns:serif="http://www.serif.com/" style="fill-rule:evenodd;clip-rule:evenodd;stroke-linecap:round;stroke-linejoin:round;stroke-miterlimit:1.5;">
    <g transform="matrix(1,0,0,1,-55.0612,-66.1564)">
        <rect id="Artboard1" x="55.061" y="66.156" width="836.968" height="749.367" style="fill:none;"/>
        <g id="Artboard11" serif:id="Artboard1">
            <g transform="matrix(1,0,0,1,-489.454,-429.719)">
                <path d="M814.206,741.307L786.699,840.96L841.936,829.462L814.206,741.307ZM892.4,945.519L921.033,1036.54L1008.62,961.768L912.596,843.258L892.4,945.519ZM906.603,1035.03L887.018,972.772L876.324,1026.92L906.603,1035.03ZM1016.99,972.111L934.528,1042.52L1112.75,1090.3L1016.99,972.111ZM1149.15,779.106L1174.62,820.036L1208.15,791.407L1200.29,768.459L1149.15,779.106ZM855.033,826.735L892.834,818.867L826.995,737.605L855.033,826.735ZM845.951,842.224L782.718,855.386L745.086,991.732L863.441,1023.46L878.682,946.277L845.951,842.224ZM1164.38,828.778L1135.62,782.554L1048.82,927.438L1164.38,828.778ZM884.064,919.026L901.518,830.655L859.048,839.497L884.064,919.026ZM1018.04,952.254L1117.87,785.618L916.922,827.45L1018.04,952.254ZM1141.55,1104.69L1287.24,1026.26L1171.49,840.205L1027.36,963.261L1027.19,963.548L1141.55,1104.69ZM728.689,1001.12L768.07,858.437L742.298,863.8L657.331,1012.23L691.445,1198.02L731.64,1198.24L848.651,1098.34L860.855,1036.55L728.689,1001.12ZM914.372,1059.73L860.813,1105.46L842.646,1197.44L958.299,1199.37L914.372,1059.73ZM873.739,1040L864.969,1084.4L906.644,1048.83L873.739,1040ZM926.577,1054.17L971.299,1196.33L1132.73,1109.44L926.577,1054.17ZM1271.07,975.06L1212.79,804.945L1181.73,831.465L1271.07,975.06ZM1195.94,755.766L1179.84,708.751L1145.36,766.296L1195.94,755.766ZM1246.23,758.896L1213.76,765.656L1219.32,781.875L1246.23,758.896ZM975.436,525.077L918.468,813.53L1127.18,770.082L1127.51,769.522L975.436,525.077ZM789.204,781.859L751.135,848.365L772.051,844.011L789.204,781.859ZM634.21,886.301L653.606,991.943L724.885,867.427L634.21,886.301ZM551.415,1197.26L677.897,1197.95L647.083,1030.13L551.415,1197.26ZM844.494,1119.39L752.008,1198.35L828.816,1198.77L844.494,1119.39ZM696.926,1227.88L716.149,1211.47L693.891,1211.35L696.926,1227.88ZM1234.32,1218.01C1248.71,1212.54 1344.62,1177.97 1374.85,1167.08L1294.47,1037.88L991.754,1200.83C1096.12,1206.72 1214.84,1216.4 1234.32,1218.01Z" style="fill:rgb(253,193,6);stroke:black;stroke-width:1px;"/>
            </g>
        </g>
    </g>
</svg>
