<?xml version="1.0" standalone="no"?>
<!DOCTYPE svg PUBLIC "-//W3C//DTD SVG 20010904//EN"
 "http://www.w3.org/TR/2001/REC-SVG-20010904/DTD/svg10.dtd">
<svg version="1.0" xmlns="http://www.w3.org/2000/svg"
 width="76.000000pt" height="76.000000pt" viewBox="0 0 76.000000 76.000000"
 preserveAspectRatio="xMidYMid meet">
<metadata>
Created by potrace 1.14, written by Peter Selinger 2001-2017
</metadata>
<g transform="translate(0.000000,76.000000) scale(0.100000,-0.100000)"
fill="#000000" stroke="none">
<path d="M275 747 c-111 -37 -187 -103 -237 -205 -43 -87 -50 -189 -18 -281
11 -35 19 -70 16 -77 -3 -9 2 -14 12 -15 9 0 33 -20 52 -44 24 -31 59 -56 109
-82 71 -36 80 -38 170 -38 87 0 102 3 161 31 41 20 85 52 120 88 30 31 60 56
67 56 18 0 26 19 14 33 -7 9 -6 28 5 63 24 77 15 185 -23 265 -63 132 -178
208 -326 215 -52 3 -97 -1 -122 -9z m177 -8 c213 -45 336 -249 282 -466 -4
-13 -10 -23 -15 -23 -21 0 -59 74 -83 160 l-25 95 35 32 36 32 -43 -2 c-39 -2
-44 1 -47 21 -5 31 -19 28 -37 -8 -9 -17 -28 -35 -43 -41 -21 -8 -29 -7 -42 9
-108 137 -145 180 -150 177 -3 -2 -7 -36 -9 -76 -3 -82 -8 -97 -24 -75 -10 13
-17 6 -46 -44 -30 -51 -39 -60 -70 -65 -61 -10 -65 -16 -52 -75 11 -51 10 -53
-28 -117 l-39 -65 -18 49 c-13 32 -19 74 -19 128 0 71 4 89 32 146 53 108 132
174 243 205 58 16 97 17 162 3z m-31 -157 c23 -29 40 -54 38 -55 -2 -2 -28 -8
-57 -13 -67 -13 -85 2 -78 67 2 24 5 60 5 79 l1 35 25 -30 c14 -16 43 -54 66
-83z m159 -17 c0 -8 -4 -15 -10 -15 -5 0 -7 7 -4 15 4 8 8 15 10 15 2 0 4 -7
4 -15z m-300 -75 c-20 -12 -22 -7 -14 26 7 28 7 28 17 5 8 -17 7 -25 -3 -31z
m310 32 c0 -5 -11 -19 -25 -32 -31 -29 -55 -16 -33 19 12 20 58 30 58 13z
m-103 -24 c11 -8 9 -18 -9 -47 -34 -57 -35 -57 -77 -10 l-39 44 37 10 c51 15
73 16 88 3z m123 -55 c6 -27 16 -58 21 -70 5 -13 7 -23 5 -23 -1 0 -22 23 -45
51 -42 48 -42 51 -26 70 26 28 31 24 45 -28z m-220 -14 l43 -52 -34 -28 -34
-28 -16 48 c-43 126 -30 144 41 60z m-94 4 c-3 -21 -5 -51 -5 -66 -1 -27 -3
-28 -33 -22 -18 4 -34 8 -35 9 -3 3 25 94 32 106 3 6 15 10 26 10 17 0 19 -5
15 -37z m205 4 c-13 -12 -20 -15 -16 -7 14 26 28 41 33 35 3 -3 -5 -16 -17
-28z m-285 -38 c-9 -29 -16 -54 -16 -56 0 -1 20 -8 44 -14 43 -11 45 -12 40
-45 -5 -39 -57 -93 -90 -94 -19 0 -23 8 -33 63 -6 35 -11 69 -11 77 0 16 71
133 77 127 2 -3 -3 -29 -11 -58z m-26 47 c0 -3 -10 -22 -22 -42 -22 -37 -22
-38 -29 -13 -11 39 -10 47 9 52 25 7 42 8 42 3z m381 -48 c77 -95 74 -82 23
-107 l-45 -23 -37 43 c-56 64 -56 65 -20 99 18 16 36 30 39 30 3 0 21 -19 40
-42z m-236 -45 c5 -28 4 -32 -9 -27 -11 4 -16 19 -16 48 1 45 13 35 25 -21z
m141 -25 c49 -54 48 -57 -25 -36 l-69 21 26 23 c15 13 30 24 33 24 3 0 19 -15
35 -32z m-136 -21 c0 -2 -9 -12 -20 -22 -19 -18 -20 -17 -20 3 0 15 6 22 20
22 11 0 20 -2 20 -3z m-200 -21 c0 -7 3 -33 6 -57 l6 -44 -45 3 -45 4 32 54
c31 53 46 67 46 40z m520 6 c0 -4 12 -20 26 -35 53 -58 -10 -104 -126 -93
-143 15 -143 14 -22 78 110 59 122 63 122 50z m-282 -98 c-2 -2 -21 -1 -41 3
-30 5 -37 10 -37 28 0 14 11 32 28 44 l27 20 13 -45 c8 -25 12 -47 10 -50z
m82 77 l65 -18 -62 -31 -62 -32 -12 43 c-6 23 -13 45 -16 50 -7 11 17 8 87
-12z m-180 -66 c0 -9 -9 -15 -22 -15 -22 1 -23 1 -4 15 25 19 26 19 26 0z
m-120 -50 c0 -19 11 -19 36 0 27 20 178 19 305 -2 76 -12 108 -14 134 -6 19 6
35 9 35 7 0 -8 -67 -68 -101 -90 -56 -35 -153 -57 -224 -49 -94 9 -186 59
-249 133 l-19 22 41 0 c31 0 42 -4 42 -15z"/>
</g>
</svg>
