<?xml version="1.0" encoding="UTF-8" standalone="no"?>
<!DOCTYPE svg PUBLIC "-//W3C//DTD SVG 1.1//EN" "http://www.w3.org/Graphics/SVG/1.1/DTD/svg11.dtd">
<svg width="100%" height="100%" viewBox="0 0 2553 1604" version="1.1" xmlns="http://www.w3.org/2000/svg" xmlns:xlink="http://www.w3.org/1999/xlink" xml:space="preserve" xmlns:serif="http://www.serif.com/" style="fill-rule:evenodd;clip-rule:evenodd;stroke-linejoin:round;stroke-miterlimit:2;">
    <g transform="matrix(0.930535,0,0,0.915207,93.2102,93.4964)">
        <rect id="Artboard1" x="-100.168" y="-102.159" width="2742.54" height="1752.16" style="fill:none;"/>
        <clipPath id="_clip1">
            <rect id="Artboard11" serif:id="Artboard1" x="-100.168" y="-102.159" width="2742.54" height="1752.16"/>
        </clipPath>
        <g clip-path="url(#_clip1)">
            <g transform="matrix(1.07465,0,0,1.09265,-100.168,-102.159)">
                <path d="M2546.95,1031.69L2546.95,1340.9C1707.6,1401.68 646.705,1700.06 296.946,1547.34C122.158,1500.41 26.411,1430.83 -3.054,1334.3L-3.054,9.322L-0,9.322L-0,737.899C-0,737.899 1161.66,1118.4 1961.39,1118.4C2447.94,1118.4 2532.33,1053.34 2546.95,1031.69Z" style="fill:url(#_Linear2);"/>
            </g>
        </g>
    </g>
    <defs>
        <linearGradient id="_Linear2" x1="0" y1="0" x2="1" y2="0" gradientUnits="userSpaceOnUse" gradientTransform="matrix(4.76042e-14,777.435,-777.435,4.76042e-14,1035.2,707.349)"><stop offset="0" style="stop-color:rgb(90,0,123);stop-opacity:0.5"/><stop offset="1" style="stop-color:rgb(99,0,0);stop-opacity:0.5"/></linearGradient>
    </defs>
</svg>
